PathFileType	4	(X/Y/Z)	..\data\2014025\dynamic\2014025_C5_02.trc
DataRate	CameraRate	NumFrames	NumMarkers	Units	OrigDataRate	OrigDataStartFrame	OrigNumFrames
100.000000	100.000000	4	52	mm	100.000000	109	125
Frame#	Time	L_IAS			L_IPS			R_IPS			R_IAS			L_FTC			L_FLE			L_FME			L_FAX			L_TTC			L_FAL			L_TAM			L_FCC			L_FM1			L_FM2			L_FM5			R_FTC			R_FLE			R_FME			R_FAX			R_TTC			R_FAL			R_TAM			R_FCC			R_FM1			R_FM2			R_FM5			CV7			TV10			SXS			SJN			L_SIA			L_SRS			L_SAA			L_SAE			L_HLE			L_HME			L_UOA			L_RSP			L_UHE			L_HM2			L_HM5			R_SIA			R_SRS			R_SAA			R_SAE			R_HLE			R_HME			R_UOA			R_RSP			R_UHE			R_HM2			R_HM5			
		X1	Y1	Z1	X2	Y2	Z2	X3	Y3	Z3	X4	Y4	Z4	X5	Y5	Z5	X6	Y6	Z6	X7	Y7	Z7	X8	Y8	Z8	X9	Y9	Z9	X10	Y10	Z10	X11	Y11	Z11	X12	Y12	Z12	X13	Y13	Z13	X14	Y14	Z14	X15	Y15	Z15	X16	Y16	Z16	X17	Y17	Z17	X18	Y18	Z18	X19	Y19	Z19	X20	Y20	Z20	X21	Y21	Z21	X22	Y22	Z22	X23	Y23	Z23	X24	Y24	Z24	X25	Y25	Z25	X26	Y26	Z26	X27	Y27	Z27	X28	Y28	Z28	X29	Y29	Z29	X30	Y30	Z30	X31	Y31	Z31	X32	Y32	Z32	X33	Y33	Z33	X34	Y34	Z34	X35	Y35	Z35	X36	Y36	Z36	X37	Y37	Z37	X38	Y38	Z38	X39	Y39	Z39	X40	Y40	Z40	X41	Y41	Z41	X42	Y42	Z42	X43	Y43	Z43	X44	Y44	Z44	X45	Y45	Z45	X46	Y46	Z46	X47	Y47	Z47	X48	Y48	Z48	X49	Y49	Z49	X50	Y50	Z50	X51	Y51	Z51	X52	Y52	Z52	

110	1.09	1794.04541015625	901.1956787109377	-403.1485900878907	1565.203369140625	967.5900878906252	-360.1609191894532	1557.076049804688	960.5981445312502	-243.4441986083985	1774.625	913.5589599609377	-139.9211578369141	1689.266967773438	844.7290039062502	-500.721405029297	1638.770141601563	469.8826293945314	-426.6024169921876	1614.125	458.0679931640626	-267.7806701660157	1602.615966796875	421.351531982422	-428.5361938476564	1653.127807617188	379.4975280761719	-369.9322204589844	1513.938354492188	80.79483032226564	-383.3761596679688	1525.142700195313	89.39802551269533	-294.4532165527344	1463.072998046875	41.53458404541016	-335.3258056640626	1649.381469726563	18.43198966979981	-291.1831054687501	1655.7158203125	37.09290313720704	-350.1072692871094	1611.271850585938	22.04738235473633	-398.9517211914064	1679.258666992188	828.074890136719	-75.51158142089845	1845.16455078125	486.0490722656251	-119.7509460449219	1878.3349609375	490.4259643554689	-279.2536010742188	1821.281494140625	415.8619079589845	-119.9466171264649	1910.914794921875	409.9317626953126	-170.8287353515625	1821.88818359375	87.43116760253908	-164.7513732910157	1861.715454101563	97.68343353271487	-245.7268218994141	1802.570922851563	31.89827537536622	-233.1910858154297	1983.700317382813	49.01784133911134	-193.4319305419922	1961.299560546875	72.12413024902345	-145.6363830566407	1912.941162109375	45.86731719970704	-111.5185012817383	1646.063598632813	1415.997314453125	-288.7009582519532	1569.148315429688	1191.602783203125	-297.7642211914063	1826.600708007813	1202.779907226563	-271.2653503417969	1759.42626953125	1339.909912109375	-277.4949645996094	1574.622924804688	1236.885131835938	-402.2308044433595	1610.42138671875	1368.533203125	-377.9501342773438	1660.88330078125	1378.92919921875	-449.5500793457032	1711.81787109375	1386.78515625	-464.1744384765626	1723.140991210938	1082.206665039063	-569.5796508789064	1688.0927734375	1051.27880859375	-487.0351867675782	1693.344970703125	1050.039428710938	-533.9921875000001	1870.024658203125	880.1663208007815	-544.5368652343751	1812.089477539063	863.0706787109377	-600.1709594726564	1911.86328125	811.243835449219	-572.5599975585939	1829.640747070313	809.1573486328127	-624.1253662109376	1553.07666015625	1225.267578125	-197.1199035644532	1597.598266601563	1358.646850585938	-206.9066619873047	1635.506958007813	1369.537109375	-136.1011352539063	1683.212524414063	1373.416137695313	-113.0932693481446	1617.74658203125	1065.523315429688	-27.80755996704102	1615.617065429688	1045.991088867188	-114.2496414184571	1602.499633789063	1038.934204101563	-62.3117141723633	1696.954467773438	826.8526000976565	3.401770353317262	1640.002197265625	833.0385742187502	36.5854721069336	1691.637329101563	749.5697021484376	31.38801002502442	1603.874389648438	791.9561767578127	40.65711975097657	
111	1.1	1811.358642578125	899.020446777344	-404.0532531738282	1583.599487304688	966.6613769531252	-358.5343322753907	1576.510009765625	958.9688720703127	-241.9149169921876	1795.370849609375	911.4404296875002	-140.517807006836	1705.630493164063	844.0328369140627	-500.9945373535157	1646.379272460938	470.5523071289064	-426.5916137695314	1624.14990234375	459.0389404296876	-267.2528991699219	1609.052612304688	422.8486633300782	-427.9133605957032	1659.822387695313	379.6092224121094	-370.1736145019532	1514.819702148438	82.9408416748047	-382.2793579101563	1526.983276367188	91.53448486328126	-293.6788635253907	1463.532836914063	44.77838897705079	-333.9956970214844	1650.079833984375	18.14695739746094	-291.0283203125001	1656.4111328125	36.86497879028321	-349.8240661621094	1611.1728515625	21.98521804809571	-398.2696228027345	1700.31298828125	825.4243774414065	-75.36260223388673	1866.826782226563	484.6934204101564	-120.4938888549805	1894.342529296875	487.6102600097657	-281.4500122070313	1846.056762695313	412.361053466797	-120.1313858032227	1935.608154296875	411.9468383789064	-172.2822570800782	1873.17041015625	83.50283813476564	-163.0655364990235	1910.974487304688	96.77364349365237	-244.5772552490235	1857.305908203125	26.21053123474122	-230.9822387695313	2036.97021484375	57.35385131835939	-193.8513183593751	2014.06396484375	79.2057342529297	-146.0832977294922	1967.659545898438	49.43188476562501	-110.9393386840821	1663.912719726563	1413.951416015625	-287.8552246093751	1587.28173828125	1189.505004882813	-298.4293823242188	1844.779541015625	1200.856567382813	-269.9074707031251	1777.3720703125	1337.813232421875	-276.0549621582032	1593.726440429688	1235.313598632813	-403.391082763672	1628.748657226563	1366.993530273438	-377.8925781250001	1679.927978515625	1377.568115234375	-448.8880920410157	1731.0322265625	1385.848754882813	-462.9382324218751	1750.025268554688	1082.947509765625	-571.2116088867189	1713.953857421875	1049.9130859375	-489.8344116210939	1720.542114257813	1049.24609375	-536.4816894531251	1904.161376953125	886.7564697265627	-544.3114624023439	1848.018310546875	867.6089477539065	-601.0341796875001	1949.649536132813	820.253112792969	-572.1399536132814	1868.513061523438	814.8872070312502	-625.0929565429689	1570.69189453125	1222.68115234375	-198.3579101562501	1615.267700195313	1356.134765625	-206.8375244140626	1652.606567382813	1366.801635742188	-135.5548706054688	1700.323120117188	1370.703857421875	-112.2440719604492	1628.723876953125	1064.241943359375	-28.70054817199708	1629.814697265625	1043.828735351563	-115.4337997436524	1614.326904296875	1038.189086914063	-63.5392189025879	1699.789306640625	823.6801757812502	6.43415403366089	1641.853637695313	831.6677246093752	36.97287750244141	1690.594482421875	746.6031494140626	34.51489639282227	1604.153198242188	791.9318847656252	39.66813659667969	
112	1.11	1828.471923828125	896.5164184570315	-405.5483703613282	1602.0087890625	965.4683837890627	-356.0308227539063	1596.049560546875	956.7746582031252	-239.6018218994141	1816.502319335938	908.8987426757815	-140.9916076660157	1721.781127929688	843.3365478515627	-501.1891479492189	1654.823974609375	471.1389770507814	-426.6085510253907	1635.029541015625	459.8303222656251	-266.8295593261719	1616.347412109375	424.2752380371095	-427.3289184570314	1667.21533203125	379.5346679687501	-370.3576660156251	1515.801513671875	85.34291076660158	-381.4069824218751	1528.888305664063	93.82263183593751	-293.1017456054688	1464.057250976563	48.35420608520509	-332.8702392578126	1650.621948242188	17.83842849731446	-290.8528747558594	1656.991455078125	36.64854431152344	-349.5376281738282	1611.027465820313	21.85592842102051	-397.6218566894532	1722.372314453125	822.5151977539065	-74.91380310058595	1888.166748046875	482.8326110839845	-121.0224761962891	1909.873779296875	484.0036926269532	-283.4916687011719	1870.359008789063	408.8973388671876	-120.2091140747071	1959.4228515625	413.4420166015626	-173.6614074707032	1921.864501953125	81.0089797973633	-161.6435852050782	1957.431640625	96.85449981689456	-243.7123260498047	1908.988159179688	22.20378684997559	-229.0152893066407	2086.814697265625	65.99189758300783	-194.8506317138672	2063.736572265625	86.79053497314455	-147.1056671142578	2019.251953125	53.84005737304689	-110.9050979614258	1681.743530273438	1411.6376953125	-286.8714294433594	1605.440795898438	1187.109375	-298.8485717773438	1863.037109375	1198.5751953125	-268.6220397949219	1795.332885742188	1335.419067382813	-274.5306396484376	1612.7666015625	1233.42822265625	-404.2687072753907	1646.97802734375	1365.164794921875	-377.6970825195313	1698.782470703125	1375.9404296875	-448.1922607421876	1750.066528320313	1384.61474609375	-461.6265258789064	1776.606079101563	1083.64599609375	-572.6572875976564	1739.81494140625	1048.415771484375	-492.4201049804689	1747.536376953125	1048.449829101563	-538.7470092773439	1937.709106445313	893.5322265625002	-544.1246337890626	1883.263916015625	872.3852539062502	-601.7354125976564	1986.61669921875	829.662780761719	-571.7596435546876	1906.601684570313	820.9942016601565	-625.9118041992189	1588.4267578125	1219.8232421875	-199.298324584961	1632.977905273438	1353.393920898438	-206.5490875244141	1669.807983398438	1363.8466796875	-134.8446197509766	1717.634033203125	1367.756103515625	-111.2651443481446	1640.03271484375	1062.861938476563	-29.38297653198243	1643.96142578125	1041.472412109375	-116.2469024658203	1626.471801757813	1037.257690429688	-64.47305297851564	1703.4130859375	820.7720947265627	9.471335411071779	1644.596069335938	830.5118408203127	37.3837013244629	1690.491821289063	744.0065307617189	37.53009414672852	1605.459838867188	792.0673828125002	38.64805984497071	
113	1.12	1845.466186523438	893.751647949219	-407.5342407226564	1620.50146484375	964.0163574218752	-352.7080688476563	1615.712158203125	954.0424804687502	-236.541732788086	1837.98388671875	906.0836181640627	-141.3323059082032	1737.761352539063	842.6275634765627	-501.2098693847657	1664.244750976563	471.573699951172	-426.6940307617189	1646.844360351563	460.3377685546876	-266.5791320800782	1624.633666992188	425.5539550781251	-426.8435974121095	1675.40869140625	379.1884765625001	-370.5665283203126	1516.940307617188	88.05489349365236	-380.8135070800782	1530.92041015625	96.29466247558597	-292.7809753417969	1464.725708007813	52.36568450927736	-331.9794311523438	1650.942626953125	17.50110054016114	-290.6861572265626	1657.382568359375	36.42456054687501	-349.2792358398438	1610.788696289063	21.66702651977539	-397.0374145507814	1745.404296875	819.5112915039065	-74.16873931884767	1909.39990234375	480.6371459960939	-121.3752517700196	1925.3212890625	479.9095764160157	-285.3218994140626	1894.328491210938	405.6064758300782	-120.2044448852539	1982.518920898438	414.4371032714845	-175.0263366699219	1967.30712890625	79.67137908935548	-160.530502319336	2000.502319335938	97.57099914550784	-243.1766815185547	1956.7978515625	19.60265731811524	-227.3330230712891	2132.7138671875	74.24958801269533	-196.4481964111329	2109.787841796875	94.23510742187501	-148.7154693603516	2067.08837890625	58.53506469726564	-111.4562759399414	1699.574096679688	1409.1005859375	-285.7223205566407	1623.666870117188	1184.452392578125	-298.9978942871094	1881.403198242188	1196.012329101563	-267.4112548828126	1813.328247070313	1332.78466796875	-272.9194946289063	1631.744873046875	1231.276977539063	-404.8213806152345	1665.118286132813	1363.095458984375	-377.3217163085938	1717.437255859375	1374.106811523438	-447.4318847656251	1768.904296875	1383.1357421875	-460.2166442871095	1802.817016601563	1084.325927734375	-573.8724365234376	1765.62451171875	1046.85888671875	-494.727264404297	1774.260131835938	1047.69140625	-540.7409667968751	1970.584350585938	900.437927246094	-544.0071411132814	1917.696655273438	877.3287353515627	-602.2801513671876	2022.649658203125	839.3926391601565	-571.4821777343751	1943.746948242188	827.3811035156252	-626.6109008789064	1606.313354492188	1216.733154296875	-199.9007263183594	1650.747314453125	1350.463623046875	-206.0167846679688	1687.142822265625	1360.721313476563	-133.9544372558594	1735.169799804688	1364.620483398438	-110.133903503418	1651.758666992188	1061.386352539063	-29.81862449645997	1658.04736328125	1039.014038085938	-116.6589050292969	1638.994018554688	1036.160766601563	-65.07080841064455	1707.995361328125	818.101745605469	12.47839546203614	1648.410522460938	829.5220336914065	37.85998916625977	1691.56005859375	741.7333374023439	40.40159606933594	1607.984008789063	792.2883300781252	37.67290496826173	
